<svg width="24" height="24" viewBox="0 0 24 24" fill="none" xmlns="http://www.w3.org/2000/svg">
<path fill-rule="evenodd" clip-rule="evenodd" d="M10.412 2.37879C10.9292 2.29401 11.4598 2.25 12 2.25C12.5402 2.25 13.0708 2.29401 13.588 2.37879C13.9968 2.44579 14.2738 2.83147 14.2068 3.24023C14.1398 3.64899 13.7542 3.92604 13.3454 3.85904C12.908 3.78735 12.4587 3.75 12 3.75C11.5413 3.75 11.092 3.78735 10.6546 3.85904C10.2458 3.92604 9.86016 3.64899 9.79317 3.24023C9.72617 2.83147 10.0032 2.44579 10.412 2.37879ZM16.6334 4.24641C16.8749 3.90992 17.3435 3.83296 17.68 4.07451C18.5452 4.69559 19.3044 5.4548 19.9255 6.32C20.167 6.65649 20.0901 7.12509 19.7536 7.36664C19.4171 7.60819 18.9485 7.53122 18.707 7.19473C18.181 6.46207 17.5379 5.81899 16.8053 5.29305C16.4688 5.0515 16.3918 4.5829 16.6334 4.24641ZM7.36664 4.24641C7.60819 4.5829 7.53122 5.0515 7.19473 5.29305C6.46207 5.81899 5.81899 6.46207 5.29305 7.19473C5.0515 7.53122 4.5829 7.60819 4.24641 7.36664C3.90992 7.12509 3.83296 6.65649 4.07451 6.32C4.69559 5.4548 5.4548 4.69559 6.32 4.07451C6.65649 3.83296 7.12509 3.90992 7.36664 4.24641ZM20.7598 9.79317C21.1685 9.72617 21.5542 10.0032 21.6212 10.412C21.706 10.9292 21.75 11.4598 21.75 12C21.75 12.5402 21.706 13.0708 21.6212 13.588C21.5542 13.9968 21.1685 14.2738 20.7598 14.2068C20.351 14.1398 20.074 13.7542 20.141 13.3454C20.2126 12.908 20.25 12.4587 20.25 12C20.25 11.5413 20.2126 11.092 20.141 10.6546C20.074 10.2458 20.351 9.86016 20.7598 9.79317ZM3.24023 9.79317C3.64899 9.86016 3.92604 10.2458 3.85904 10.6546C3.78735 11.092 3.75 11.5413 3.75 12C3.75 12.4587 3.78735 12.908 3.85904 13.3454C3.92604 13.7542 3.64899 14.1398 3.24023 14.2068C2.83147 14.2738 2.44579 13.9968 2.37879 13.588C2.29401 13.0708 2.25 12.5402 2.25 12C2.25 11.4598 2.29401 10.9292 2.37879 10.412C2.44579 10.0032 2.83147 9.72617 3.24023 9.79317ZM4.24641 16.6334C4.5829 16.3918 5.0515 16.4688 5.29305 16.8053C5.81899 17.5379 6.46207 18.181 7.19473 18.707C7.53122 18.9485 7.60819 19.4171 7.36664 19.7536C7.12509 20.0901 6.65649 20.167 6.32 19.9255C5.4548 19.3044 4.69559 18.5452 4.07451 17.68C3.83296 17.3435 3.90992 16.8749 4.24641 16.6334ZM19.7536 16.6334C20.0901 16.8749 20.167 17.3435 19.9255 17.68C19.3044 18.5452 18.5452 19.3044 17.68 19.9255C17.3435 20.167 16.8749 20.0901 16.6334 19.7536C16.3918 19.4171 16.4688 18.9485 16.8053 18.707C17.5379 18.181 18.181 17.5379 18.707 16.8053C18.9485 16.4688 19.4171 16.3918 19.7536 16.6334ZM9.79317 20.7598C9.86016 20.351 10.2458 20.074 10.6546 20.141C11.092 20.2126 11.5413 20.25 12 20.25C12.4587 20.25 12.908 20.2126 13.3454 20.141C13.7542 20.074 14.1398 20.351 14.2068 20.7598C14.2738 21.1685 13.9968 21.5542 13.588 21.6212C13.0708 21.706 12.5402 21.75 12 21.75C11.4598 21.75 10.9292 21.706 10.412 21.6212C10.0032 21.5542 9.72617 21.1685 9.79317 20.7598Z" fill="#0006" />
</svg>
